<svg xmlns="http://www.w3.org/2000/svg" xmlns:xlink="http://www.w3.org/1999/xlink" viewBox="0 0 2350 471"><defs><style>.cls-1{fill:url(#linear-gradient);}.cls-2{fill:#fff;}.cls-3{fill:none;}.cls-4{fill:#231f20;}.cls-5{fill:#f79410;}.cls-6{fill:#ff5f00;}.cls-7{fill:#eb001b;}.cls-8{fill:#f79e1b;}.cls-9{fill:#0a7ec2;}</style><linearGradient id="linear-gradient" y1="236.5" x2="750" y2="236.5" gradientTransform="matrix(1, 0, 0, -1, 0, 472)" gradientUnits="userSpaceOnUse"><stop offset="0" stop-color="#25265e"/><stop offset="1" stop-color="#2a2f76"/></linearGradient></defs><title>ssss</title><g id="Layer_2" data-name="Layer 2"><g id="Layer_1-2" data-name="Layer 1"><rect class="cls-1" width="750" height="471" rx="40" ry="40"/><path class="cls-2" d="M661.61,138.46H620.38c-12.77,0-22.33,3.49-27.94,16.24L513.2,334.1h56s9.16-24.12,11.23-29.42c6.13,0,60.56.09,68.34.09,1.59,6.85,6.49,29.33,6.49,29.33h49.51ZM596.2,264.87c4.35-11.14,20.84-53.63,21.25-54.7-.11,0,4.45-11.52,7.08-18.71l3.61,16.88s10.22,46.73,12.35,56.53ZM472.36,175.36a98.3,98.3,0,0,1,39.93,7.5l4.78,2.26,7.24-42.43a137.79,137.79,0,0,0-47.83-8.22c-52.72,0-89.86,26.55-90.18,64.6-.29,28.13,26.52,43.82,46.76,53.19,20.77,9.59,27.75,15.71,27.65,24.28-.13,13.12-16.59,19.11-31.92,19.11-21.36,0-32.7-3-50.23-10.27l-6.87-3.11-7.49,43.82c12.46,5.46,35.51,10.2,59.43,10.44,56.09,0,92.51-26.24,92.92-66.88.2-22.27-14-39.21-44.8-53.19-18.65-9.05-30.07-15.1-30-24.26.05-8.14,9.72-16.84,30.61-16.84Zm-160.8-36.9L278.2,334.23h53.33l33.39-195.77Z"/><path class="cls-2" d="M289.42,138.47l-84,195.38-56.46.07L101.62,164.23A223.18,223.18,0,0,0,45.2,142.54l.68-4.08h86c11.59.43,21,4.13,24.19,16.52l18.16,87.31c.29.85.57,1.69.83,2.53l5.6,27.18L232.9,138.51Z"/><rect class="cls-3" x="800" width="750" height="471" rx="40" ry="40"/><path class="cls-4" d="M1422.06,430.48v1h1a1,1,0,0,0,.53-.13.45.45,0,0,0,.19-.4.41.41,0,0,0-.19-.38,1,1,0,0,0-.53-.13Zm1-.73a1.79,1.79,0,0,1,1.16.33,1.1,1.1,0,0,1,.4.91,1,1,0,0,1-.32.8,1.65,1.65,0,0,1-.92.39l1.27,1.46h-1l-1.18-1.45h-.39v1.45h-.83v-3.89Zm-.25,5.24a3.23,3.23,0,0,0,1.26-.26,3.51,3.51,0,0,0,1.7-1.7,3.43,3.43,0,0,0,0-2.56,3.68,3.68,0,0,0-.7-1,3.47,3.47,0,0,0-1-.7,3.4,3.4,0,0,0-1.26-.24,3.56,3.56,0,0,0-1.29.24,3.44,3.44,0,0,0-1.69,1.7,3.43,3.43,0,0,0,0,2.56,3,3,0,0,0,.69,1,3.47,3.47,0,0,0,1,.7,3.38,3.38,0,0,0,1.29.26m0-7.48a4.36,4.36,0,0,1,1.67.33,4.42,4.42,0,0,1,1.36.9,4.08,4.08,0,0,1,.91,1.34,4.19,4.19,0,0,1,0,3.26,4.54,4.54,0,0,1-.91,1.34,4.74,4.74,0,0,1-1.36.9,4.38,4.38,0,0,1-4.73-.9,4.54,4.54,0,0,1-.91-1.34,4.19,4.19,0,0,1,0-3.26,4.08,4.08,0,0,1,.91-1.34,4.33,4.33,0,0,1,3.06-1.23m-394.5-15c0-7.43,4.87-13.54,12.83-13.54,7.61,0,12.74,5.85,12.74,13.54S1048.72,426,1041.11,426c-8,0-12.83-6.11-12.83-13.54m34.24,0V391.35h-9.2v5.13c-2.91-3.8-7.34-6.19-13.35-6.19-11.86,0-21.15,9.29-21.15,22.2s9.29,22.21,21.18,22.21c6,0,10.44-2.39,13.35-6.2v5.13h9.2Zm310.69,0c0-7.43,4.87-13.54,12.82-13.54,7.62,0,12.74,5.85,12.74,13.54S1393.65,426,1386,426c-8,0-12.82-6.11-12.82-13.54m34.24,0V374.37h-9.2v22.11c-2.92-3.8-7.35-6.19-13.36-6.19-11.86,0-21.15,9.29-21.15,22.2s9.29,22.21,21.18,22.21c6,0,10.44-2.39,13.36-6.2v5.13h9.2Zm-230.81-14c5.92,0,9.73,3.72,10.7,10.26H1165.4c1-6.11,4.69-10.26,11.24-10.26m.18-8.23c-12.39,0-21.06,9-21.06,22.2,0,13.45,9,22.21,21.68,22.21,6.37,0,12.2-1.59,17.33-5.93l-4.5-6.81a20.24,20.24,0,0,1-12.3,4.42c-5.93,0-11.32-2.74-12.65-10.35h31.4c.09-1.15.18-2.3.18-3.54-.09-13.18-8.23-22.2-20.08-22.2m111,22.2c0-7.43,4.87-13.54,12.83-13.54,7.6,0,12.73,5.85,12.73,13.54S1308.27,426,1300.67,426c-8,0-12.83-6.11-12.83-13.54m34.23,0V391.35h-9.19v5.13c-2.93-3.8-7.34-6.19-13.36-6.19-11.85,0-21.15,9.29-21.15,22.2s9.3,22.21,21.15,22.21c6,0,10.43-2.39,13.36-6.2v5.13h9.19Zm-86.16,0c0,12.83,8.94,22.21,22.56,22.21,6.37,0,10.62-1.42,15.21-5.05l-4.41-7.43A18.62,18.62,0,0,1,1258.2,426c-7.34-.09-12.74-5.4-12.74-13.54s5.4-13.44,12.74-13.54a18.62,18.62,0,0,1,11.07,3.81l4.41-7.43c-4.59-3.63-8.84-5-15.21-5-13.62,0-22.56,9.37-22.56,22.2m118.54-22.2a12.5,12.5,0,0,0-11.15,6.19v-5.13h-9.11v42.28h9.21v-23.7c0-7,3-10.88,9-10.88a14.89,14.89,0,0,1,5.75,1.06l2.83-8.67a19.51,19.51,0,0,0-6.55-1.15M1108,394.71c-4.43-2.91-10.52-4.42-17.24-4.42-10.72,0-17.61,5.13-17.61,13.53,0,6.9,5.13,11.15,14.59,12.48l4.34.62c5.05.71,7.42,2,7.42,4.42,0,3.27-3.36,5.14-9.63,5.14a22.59,22.59,0,0,1-14.07-4.43l-4.33,7.16c5,3.72,11.41,5.49,18.3,5.49,12.22,0,19.29-5.75,19.29-13.8,0-7.44-5.57-11.32-14.77-12.65l-4.33-.63c-4-.52-7.17-1.31-7.17-4.15,0-3.1,3-5,8-5a27.28,27.28,0,0,1,13.16,3.67Zm118.63-4.42a12.45,12.45,0,0,0-11.14,6.19v-5.13h-9.11v42.28h9.19v-23.7c0-7,3-10.88,9-10.88a14.94,14.94,0,0,1,5.76,1.06l2.83-8.67a19.76,19.76,0,0,0-6.55-1.15m-78.46,1.06h-15V378.52h-9.29v12.83h-8.58v8.4h8.58V419c0,9.82,3.8,15.66,14.68,15.66a21.65,21.65,0,0,0,11.5-3.27l-2.65-7.88a17.08,17.08,0,0,1-8.14,2.39c-4.6,0-6.1-2.84-6.1-7.08V399.75h15Zm-137.47,42.28V407.1c0-10-6.36-16.72-16.63-16.81-5.4-.09-11,1.59-14.87,7.52-2.91-4.69-7.51-7.52-14-7.52-4.51,0-8.93,1.32-12.38,6.28v-5.22h-9.21v42.28h9.29V410.19c0-7.34,4.07-11.24,10.36-11.24,6.1,0,9.19,4,9.19,11.15v23.53h9.3V410.19c0-7.34,4.24-11.24,10.34-11.24,6.28,0,9.29,4,9.29,11.15v23.53Z"/><path class="cls-5" d="M1427.73,293v-6.17h-1.61l-1.86,4.24-1.86-4.24h-1.62V293h1.15v-4.66l1.74,4h1.18l1.75-4V293Zm-10.22,0v-5.12h2.07v-1h-5.27v1h2.07V293Z"/><path class="cls-6" d="M1244.66,319.58H1105.32V69.16h139.34Z"/><path class="cls-7" d="M1114.25,194.35a159,159,0,0,1,60.82-125.21,159.26,159.26,0,1,0,0,250.42,159,159,0,0,1-60.82-125.21"/><path class="cls-8" d="M1432.59,194.35a159.25,159.25,0,0,1-257.67,125.21,159.28,159.28,0,0,0,0-250.42,159.25,159.25,0,0,1,257.67,125.21"/><rect class="cls-9" x="1600" width="750" height="471" rx="40" ry="40"/><path id="path7" class="cls-2" d="M1760.4,284.2l-9.6,22.44h-86l67.87-142.28h162.09l16.37,31.42,15.28-31.42H2145l18.68,19.53,20.07-19.53h101.48l-72.05,71,68.94,71.3h-98.21l-22-21-21.79,21H1789.53L1779,284.2m207.79-99.5H1944.1L1912,252.78l-34.56-68.09h-42.68v98.58l-44.11-98.58h-40L1703.5,286.31h28.86l9.55-23.17h54.88l11,23.17h53V203.59l37.6,82.72h24.8l37.4-81.3v81.3h26.22V184.69ZM2163,217.61l-30.48-32.92H2010.14V286.31h118.3L2162,253l33.74,33.33h31.5l-48.17-51.42,49.6-50.2h-32.93ZM2098.56,266h-62.2V243.63h62.2V223.3h-62.2V205h62.2V187.73l46.14,46.14-46.14,46.35Zm-328.67-64.64,17.89,41.26h-37.2Z"/></g></g></svg>